<svg width="133" height="70" viewBox="0 0 133 70" fill="none" xmlns="http://www.w3.org/2000/svg">
<g clip-path="url(#clip0_4_78)">
<path d="M132.917 42.9076C132.83 42.6258 132.678 42.3688 132.472 42.1582C132.266 41.9476 132.012 41.7895 131.733 41.6971C119.033 37.5233 105.521 39.3764 98.1141 41.0042C117.949 25.106 114.753 6.41952 114.603 5.60562C114.532 5.22601 114.345 4.87807 114.067 4.61076C113.789 4.34344 113.434 4.17024 113.052 4.11557C112.123 3.982 104.07 3.31003 90.2324 16.9168C88.3026 10.1134 81.688 8.77361 77.3117 9.06995C75.9362 5.62233 72.7561 1.74481 69.0758 0.463429C67.8802 0.0119043 66.587 -0.116249 65.3263 0.0918463C64.0656 0.299941 62.8819 0.836925 61.8943 1.64879C57.618 4.98789 56.3051 9.66264 56.1926 13.8741C53.5501 9.20769 49.5238 4.7792 44.1055 5.98545C36.674 7.655 35.2318 14.5795 35.5403 19.1165C32.0975 20.498 28.2255 23.7077 26.946 27.364C26.3943 28.8488 26.3357 30.4722 26.7792 31.9929C21.8276 32.9988 10.7908 36.3212 0.520952 46.9145C0.330667 47.1093 0.185994 47.344 0.0973367 47.6017C0.00867936 47.8594 -0.0217418 48.1336 0.00829924 48.4045C0.0398654 48.6762 0.131007 48.9375 0.275106 49.1698C0.419206 49.4022 0.612707 49.5997 0.841894 49.7485L0.958609 49.8236C2.25902 50.6208 12.8749 56.5978 32.4727 52.353C34.1399 59.7992 41.0545 61.235 45.5893 60.9303C46.7146 63.7518 49.0612 66.8697 51.8912 68.6061C52.4993 68.9846 53.1464 69.2966 53.821 69.5368C55.0173 69.9879 56.311 70.1158 57.5723 69.9077C58.8336 69.6996 60.018 69.1629 61.0066 68.3515C65.283 65.0124 66.5917 60.3376 66.7042 56.122C68.2297 58.8141 70.2095 61.427 72.6477 62.9254C73.5456 63.5053 74.5499 63.8999 75.6019 64.0863C76.654 64.2726 77.7326 64.2469 78.7746 64.0106C79.9137 63.7639 81.0077 63.3415 82.0173 62.7585C114.111 68.2972 132.45 44.8108 132.621 44.5604C132.798 44.3285 132.917 44.0574 132.969 43.7699C133.02 43.4824 133.002 43.1867 132.917 42.9076ZM111.151 7.88458C111.439 12.4758 110.835 25.9032 96.0675 37.8989C95.778 37.0075 95.332 36.175 94.7505 35.4405C91.5787 31.3835 87.2273 29.9894 83.1969 29.7599L84.1138 28.7748C86.6813 27.1052 88.9695 24.9891 90.0156 22.4305C100.936 10.7687 108.263 8.36458 111.151 7.88458ZM56.4843 43.2247C51.8245 40.3656 50.3074 34.3219 53.1 29.7557C55.8925 25.1895 61.9611 23.8037 66.6209 26.667C68.7076 27.9401 70.2569 29.934 70.9764 32.2725V32.3059C71.0389 32.5188 71.093 32.7233 71.1431 32.9445C71.0969 33.2585 71.1328 33.5793 71.2473 33.8753C71.2723 33.9337 71.3057 33.9838 71.3307 34.0381C71.4669 35.2117 71.3849 36.4004 71.0889 37.5441C71.0889 37.59 71.0639 37.6318 71.0514 37.6777C70.8158 38.537 70.4608 39.359 69.9969 40.1194C67.2127 44.7023 61.1483 46.088 56.4843 43.2247ZM64.1575 4.55802C64.6617 4.13214 65.2717 3.85095 65.9226 3.74439C66.5735 3.63783 67.2412 3.70984 67.8546 3.95278C70.7721 4.97955 73.5689 8.76108 74.2274 11.5158C74.337 11.9747 74.618 12.374 75.0126 12.6318C75.4072 12.8895 75.8853 12.9861 76.3488 12.9016C76.7115 12.8348 85.2475 11.3781 86.8188 18.4486C86.9674 19.1258 86.9502 19.8289 86.7688 20.498L81.6339 26.02C79.1827 27.4714 76.5803 28.6499 73.8731 29.5345C72.9971 27.6091 71.6875 25.9133 70.0469 24.5801L73.5814 18.7074C73.8343 18.2878 73.9105 17.7848 73.7933 17.309C73.6761 16.8331 73.3749 16.4234 72.9562 16.1697C72.537 15.9181 72.0354 15.8432 71.5612 15.9613C71.0869 16.0795 70.6787 16.381 70.4262 16.8L66.9043 22.6434C65.0349 21.8157 63.0037 21.4192 60.9607 21.483C59.9771 18.194 58.0806 9.32041 64.1575 4.55802ZM37.9911 22.2009C38.4495 22.0911 38.8486 21.8099 39.1066 21.4149C39.3647 21.0199 39.4621 20.5411 39.3789 20.0764C39.3123 19.7091 37.8577 11.1611 44.9182 9.59168C50.5533 8.33952 54.6213 18.5947 55.98 22.6017C54.0522 23.4337 52.3504 24.7144 51.016 26.3373L45.1808 22.8395C44.9729 22.7156 44.7425 22.6339 44.503 22.5992C44.2635 22.5644 44.0195 22.5772 43.7849 22.6369C43.5504 22.6966 43.3298 22.802 43.1359 22.9471C42.9421 23.0921 42.7787 23.274 42.655 23.4823C42.4107 23.8977 42.3385 24.3924 42.4537 24.8604C42.569 25.3284 42.8627 25.7327 43.2719 25.9867H43.2927L49.107 29.4593C48.2934 31.3432 47.9295 33.3912 48.0442 35.4405C44.8098 36.413 35.8487 38.3872 31.0597 32.2516C30.6356 31.747 30.3556 31.1369 30.2492 30.4859C30.1428 29.835 30.214 29.1673 30.4554 28.5536C31.4682 25.6444 35.2444 22.8479 37.9911 22.2009ZM28.8215 35.3862C29.7195 36.3859 30.7569 37.2504 31.9016 37.9531C34.4586 39.4533 37.3658 40.251 40.3293 40.2655C36.8365 42.2522 33.4771 45.0111 32.5227 48.5506C18.2015 51.8312 8.9194 49.281 4.98483 47.6866C15.1297 38.2286 25.7288 35.8913 28.8423 35.3695L28.8215 35.3862ZM58.7142 65.4381C58.2101 65.864 57.6001 66.1451 56.9492 66.2517C56.2982 66.3582 55.6305 66.2862 55.0172 66.0433C52.0788 65.0249 49.3029 61.2392 48.6443 58.4844C48.5338 58.027 48.2533 57.6289 47.8599 57.3715C47.4665 57.114 46.9898 57.0165 46.5271 57.0987C46.1645 57.1613 37.6117 58.5721 36.0529 51.5516C34.8942 46.2216 44.1972 42.0477 49.2488 40.3782C50.098 42.2348 51.3511 43.8777 52.9165 45.1865L48.7485 50.7252C48.6027 50.9193 48.4967 51.1404 48.4365 51.3756C48.3762 51.6109 48.3628 51.8558 48.3973 52.0962C48.4317 52.3367 48.5133 52.5679 48.6372 52.7767C48.7612 52.9855 48.9251 53.1678 49.1195 53.313L49.2612 53.4132C49.6532 53.6532 50.1205 53.7378 50.5716 53.6506C51.0227 53.5633 51.425 53.3104 51.6995 52.9415L56.0342 47.1565C57.8632 47.9997 59.8559 48.4273 61.8693 48.4087C62.8655 51.6476 64.8494 60.6465 58.735 65.4214L58.7142 65.4381ZM66.8667 47.3903C68.8842 46.5668 70.667 45.2562 72.0559 43.5754L78.3079 47.4153C78.5142 47.542 78.7434 47.6268 78.9824 47.6647C79.2215 47.7026 79.4657 47.693 79.701 47.6364C79.9364 47.5798 80.1582 47.4774 80.354 47.3349C80.5498 47.1924 80.7155 47.0126 80.8419 46.8059C80.9691 46.5991 81.0543 46.3692 81.0926 46.1294C81.1308 45.8896 81.1213 45.6446 81.0648 45.4085C81.0082 45.1723 80.9057 44.9496 80.7631 44.7532C80.6204 44.5569 80.4404 44.3906 80.2334 44.2641L73.9815 40.4241C74.1647 40.0014 74.3261 39.5695 74.465 39.1302L79.6458 33.5581C83.6053 33.1407 88.6319 33.6374 91.8162 37.7319C92.241 38.2371 92.5218 38.8477 92.6289 39.4993C92.736 40.1509 92.6654 40.8193 92.4247 41.4342C91.3994 44.3559 87.6233 47.1523 84.8724 47.816C84.416 47.9257 84.0185 48.2059 83.7613 48.5992C83.5042 48.9925 83.4066 49.4693 83.4886 49.9322C83.5512 50.2995 84.9641 58.8643 77.9494 60.4211C72.7102 61.5814 68.5631 52.5033 66.8876 47.3903H66.8667ZM85.3642 59.5362C87.1023 56.8149 87.494 53.4591 87.319 50.8796C89.9499 49.795 92.2712 48.0741 94.0752 45.871C96.9928 44.9945 112.86 40.6244 127.836 44.4268C122.859 49.5607 108.059 62.291 85.3851 59.5362H85.3642Z" fill="#E88B63"/>
</g>
<defs>
<clipPath id="clip0_4_78">
<rect width="133" height="70" fill="white"/>
</clipPath>
</defs>
</svg>
