<svg width="258" height="222" viewBox="0 0 258 222" fill="none" xmlns="http://www.w3.org/2000/svg">
<path d="M254.62 92.49L29.31 9.08L5.62998 0.320021C5.58159 0.298887 5.53136 0.282134 5.47996 0.270003H5.40998L5.16996 0.200026C5.02241 0.15397 4.87214 0.117215 4.71998 0.0900098H4.65998H4.39997C4.22678 0.0802262 4.05318 0.0802262 3.87998 0.0900098H3.61997C3.44463 0.101397 3.27064 0.128183 3.09999 0.170027L2.82997 0.250014C2.701 0.282322 2.57409 0.32239 2.44996 0.370009L2.34999 0.430006L2.14997 0.530012C1.97966 0.618138 1.81591 0.718384 1.65998 0.83C1.62473 0.854174 1.5913 0.88093 1.55998 0.910017C1.38269 1.04407 1.21862 1.19477 1.06999 1.36003L1.00996 1.44002C0.850436 1.60882 0.712723 1.79695 0.599985 2.00001V2.00001L0.549967 2.11003C0.441831 2.29439 0.351437 2.48858 0.279978 2.69002C0.254057 2.75476 0.23398 2.82171 0.21998 2.89003C0.161364 3.07281 0.117879 3.26011 0.0899756 3.45003C0.0850366 3.51994 0.0850366 3.5901 0.0899756 3.66002C0.0748258 3.84972 0.0748258 4.04033 0.0899756 4.23002C0.0855262 4.29662 0.0855262 4.36341 0.0899756 4.43001C0.100378 4.6193 0.130538 4.80698 0.179972 4.99C0.19534 5.06124 0.215381 5.13142 0.239969 5.20003C0.274142 5.3427 0.317572 5.48298 0.369974 5.62001V5.62001L91.13 218.77C91.326 219.338 91.6473 219.854 92.07 220.28C92.442 220.656 92.885 220.955 93.3734 221.159C93.8618 221.363 94.3857 221.468 94.915 221.468C95.4442 221.468 95.9682 221.363 96.4566 221.159C96.9449 220.955 97.3879 220.656 97.76 220.28L155.25 163.6C155.712 163.145 156.273 162.802 156.889 162.599C157.505 162.396 158.16 162.338 158.802 162.429C159.445 162.52 160.057 162.757 160.593 163.124C161.128 163.49 161.572 163.974 161.89 164.54L184.05 204.07C184.327 204.632 184.731 205.121 185.232 205.498C185.732 205.875 186.314 206.129 186.93 206.24C187.45 206.338 187.985 206.332 188.503 206.221C189.021 206.111 189.512 205.899 189.947 205.598C190.382 205.296 190.753 204.912 191.039 204.466C191.324 204.02 191.519 203.522 191.61 203L205.56 126.3C205.68 125.658 205.947 125.053 206.341 124.532C206.735 124.012 207.245 123.59 207.83 123.3L254.83 100.01C255.344 99.8 255.808 99.4852 256.194 99.0858C256.58 98.6863 256.878 98.211 257.07 97.69C257.26 97.1884 257.346 96.6538 257.325 96.1179C257.304 95.5821 257.175 95.056 256.947 94.5709C256.718 94.0858 256.394 93.6516 255.995 93.2941C255.595 92.9366 255.128 92.6632 254.62 92.49ZM151.21 156.22L102.68 201.04C100.56 203.13 96 203.43 94.84 200.69L27 47.39C26.87 44.25 27.2 42.05 29.29 39.58C29.8539 39.0009 30.5338 38.5474 31.2852 38.2493C32.0365 37.9512 32.8424 37.8151 33.65 37.85L151.16 150.22C151.56 150.609 151.879 151.074 152.098 151.587C152.317 152.1 152.432 152.652 152.437 153.21C152.442 153.768 152.336 154.321 152.125 154.838C151.914 155.354 151.603 155.824 151.21 156.22V156.22ZM195.31 128.37L188.61 173.24C187.9 177.12 181.85 183.79 179.92 180.34L163.56 151.22L163.4 150.99L163.28 150.82C163.154 150.651 163.017 150.491 162.87 150.34L162.82 150.28L66.82 58.55C65.63 56.64 64.46 54.72 63.41 52.73C62.54 51.09 58.58 43.48 63.95 44.59C64.1795 44.642 64.4146 44.6655 64.65 44.66L193.29 124.06C194.031 124.491 194.623 125.139 194.984 125.917C195.345 126.695 195.459 127.565 195.31 128.41V128.37ZM230.99 102.76L207.38 114.45C206.1 115.09 201.71 116.45 200.48 115.73L84.3 46.92C79.88 44.3 79.39 36.1 84.21 37.92L233.93 93.4C237.41 94.68 234.3 101.16 230.99 102.8V102.76Z" fill="black"/>
</svg>
